<svg viewBox="0 0 600 320" xmlns="http://www.w3.org/2000/svg" width="600" height="320" font-family="sans-serif">
  <rect width="600" height="320" fill="#FFFFFF"/>
  <defs>
    <marker id="arrow2" markerWidth="10" markerHeight="10" refX="8" refY="3" orient="auto" markerUnits="strokeWidth">
      <path d="M0,0 L9,3 L0,6 Z" fill="#6B7280" />
    </marker>
  </defs>
  <circle cx="300" cy="160" r="140" fill="none" stroke="#E5E7EB" stroke-width="2" stroke-dasharray="4 4"/>

  <rect x="240" y="20" width="120" height="50" rx="8" fill="#FFFFFF" stroke="#111418" stroke-width="2"/>
  <text x="300" y="50" text-anchor="middle" font-size="13" fill="#111418" font-weight="600">Thought</text>

  <rect x="440" y="140" width="120" height="50" rx="8" fill="#FFFFFF" stroke="#3498DB" stroke-width="2"/>
  <text x="500" y="170" text-anchor="middle" font-size="13" fill="#111418" font-weight="600">Action</text>

  <rect x="240" y="260" width="120" height="50" rx="8" fill="#FFFFFF" stroke="#7D3C98" stroke-width="2"/>
  <text x="300" y="290" text-anchor="middle" font-size="13" fill="#111418" font-weight="600">Observation</text>

  <rect x="40" y="140" width="120" height="50" rx="8" fill="#111418"/>
  <text x="100" y="165" text-anchor="middle" font-size="12" fill="#FFFFFF" font-weight="600">Final</text>
  <text x="100" y="180" text-anchor="middle" font-size="10" fill="#F9D5A3">answer</text>

  <path d="M355,55 C420,75 470,110 490,138" fill="none" stroke="#6B7280" stroke-width="2" marker-end="url(#arrow2)"/>
  <path d="M480,192 C440,230 380,255 358,270" fill="none" stroke="#6B7280" stroke-width="2" marker-end="url(#arrow2)"/>
  <path d="M245,275 C180,250 130,210 110,192" fill="none" stroke="#6B7280" stroke-width="2" marker-end="url(#arrow2)"/>
  <path d="M120,138 C160,95 200,65 240,50" fill="none" stroke="#6B7280" stroke-width="2" marker-end="url(#arrow2)" stroke-dasharray="3 3"/>
</svg>
